Coordinates
version=1
nRows=17
nColumns=36
inDegrees=yes

Units are S.I. units (second, meters, Newtons, ...)
If the header above contains a line with 'inDegrees', this indicates whether rotational values are in degrees (yes) or radians (no).

endheader
time	pelvis_tilt	pelvis_list	pelvis_rotation	pelvis_tx	pelvis_ty	pelvis_tz	hip_flexion_r	hip_adduction_r	hip_rotation_r	knee_angle_r	knee_angle_r_beta	ankle_angle_r	subtalar_angle_r	mtp_angle_r	hip_flexion_l	hip_adduction_l	hip_rotation_l	knee_angle_l	knee_angle_l_beta	ankle_angle_l	subtalar_angle_l	mtp_angle_l	lumbar_extension	lumbar_bending	lumbar_rotation	arm_flex_r	arm_add_r	arm_rot_r	elbow_flex_r	pro_sup_r	arm_flex_l	arm_add_l	arm_rot_l	elbow_flex_l	pro_sup_l
      0.00000000	      1.85252825	     -1.16670386	     -2.08155477	      0.38676435	      0.90237861	     -0.10083926	     -1.78998892	     -1.52226823	      0.41161433	      4.55648296	      0.07952563	      5.07561793	    -15.19043716	     -5.98066486	     -1.24457199	     -3.45163033	      2.17320072	      3.61902521	      0.06316391	      6.16647016	     -7.61927852	     -5.98066486	     -9.67232331	      0.93933347	     -1.88515566	      8.66788464	     -9.23140272	     31.60716344	     23.15597381	     66.93500252	      3.34668344	     -8.46185895	     22.80788208	     26.74312769	     64.32471811
      0.01666670	      1.89564132	     -0.98202047	     -1.78899012	      0.38778272	      0.90280914	     -0.10144070	     -2.50524922	     -1.31278384	      1.32657839	      3.61611004	      0.06311303	      7.70419558	    -12.93235929	     -6.65229478	     -1.56723146	     -2.91506347	      3.33612958	      3.27501743	      0.05715984	      6.24552403	     -8.52161282	     -6.65229478	     -8.59416453	      0.79281545	     -1.73618707	      8.42287688	     -9.24139995	     31.26332306	     22.75890349	     71.48496659	      3.60385309	     -8.47714409	     23.93965577	     26.44714654	     66.57493175
      0.03333330	      1.38707715	     -0.61639373	     -2.03222894	      0.38748221	      0.90144139	     -0.10112183	     -2.17302585	     -1.55599642	      0.98086225	      3.02307342	      0.05276258	      7.96607727	    -13.42413492	     -6.75640057	     -1.06108366	     -2.45413450	      3.36020841	      3.30847648	      0.05774381	      6.33717630	     -8.85619723	     -6.75640057	     -8.21190674	      0.11414107	     -1.40833357	      8.27278891	     -8.90610574	     30.51751708	     23.11696394	     70.57023325	      3.83796986	     -8.69379916	     23.60887856	     26.71965349	     66.10391433
      0.05000000	      2.10948775	     -0.53570510	     -2.10682971	      0.38694121	      0.90362360	     -0.10075147	     -2.94741478	     -1.67963667	      1.08781912	      2.86787873	      0.05005393	      8.10015778	    -13.60720145	     -6.80589582	     -2.13703293	     -2.31067105	      3.65949670	      2.74962725	      0.04799005	      6.34562689	     -9.27276198	     -6.80589582	     -9.20461627	     -0.13564618	     -1.15392396	      8.39326997	     -8.63303585	     29.70752021	     23.00605739	     70.48013849	      4.38571198	     -8.68943789	     23.52062889	     26.42213414	     66.23276109
      0.06666670	      2.30880723	     -0.55186580	     -2.09373425	      0.38680199	      0.90111877	     -0.10112975	     -3.17763432	     -1.70678282	      1.31057350	      2.87116152	      0.05011122	      8.16984832	    -13.89683292	     -6.87877617	     -2.53473281	     -2.31785578	      4.09672032	      2.35915891	      0.04117509	      6.63404405	     -9.43994971	     -6.87877617	     -9.69252567	     -0.04713181	     -1.10641100	      8.28727263	     -8.46727029	     28.30622551	     23.44071712	     69.85306671	      4.53482822	     -8.53255303	     22.99004835	     26.62877379	     65.99478683
      0.08333330	      2.67170495	     -0.57777313	     -2.10398556	      0.38655266	      0.90381221	     -0.10050576	     -3.57942705	     -1.71399782	      1.59354190	      2.81238395	      0.04908536	      8.08620100	    -14.17911516	     -7.06722615	     -3.03309569	     -2.38097259	      4.51248753	      2.10749630	      0.03678275	      6.65880399	     -9.90158732	     -7.06722615	    -10.25823078	     -0.01427483	     -0.79299323	      7.94250617	     -8.23833666	     25.05546245	     24.15369498	     71.27427881	      4.78234890	     -8.26574057	     21.82930820	     26.59698887	     67.30519789
      0.10000000	      2.78219410	     -0.60048929	     -2.14641142	      0.38707854	      0.90485440	     -0.09819135	     -3.66436628	     -1.65366412	      1.59067153	      2.88443795	      0.05034294	      8.19088489	    -14.04151879	     -7.15528915	     -3.18694191	     -2.48486376	      4.33173094	      2.08277629	      0.03635130	      7.10555816	     -9.30576668	     -7.15528915	    -10.23842309	     -0.11987017	     -0.55839711	      7.78302796	     -7.92898586	     24.22390185	     23.99854738	     70.54360082	      4.98493092	     -8.01901992	     20.87645787	     26.07877237	     66.76781747
      0.11666670	      3.15291881	     -0.56997361	     -2.13354676	      0.38573942	      0.90792335	     -0.09961783	     -4.04517110	     -1.69424750	      1.36864041	      2.83176226	      0.04942358	      8.08698854	    -13.86414854	     -7.31138997	     -3.56448450	     -2.43646094	      4.77133129	      2.08588662	      0.03640559	      6.63078102	    -10.07840965	     -7.31138997	    -10.85108079	     -0.20102030	     -0.63551368	      7.72260755	     -7.65659183	     21.01867994	     24.51393230	     81.34171087	      4.85668401	     -7.90779213	     18.24738014	     26.67366252	     74.61537872
      0.13333330	      3.46224386	     -0.54266689	     -2.18319591	      0.38570785	      0.90784618	     -0.10030703	     -4.37758945	     -1.73718866	      1.30604074	      2.75089167	      0.04801212	      7.95821945	    -13.71364124	     -7.35183714	     -3.86493664	     -2.40781387	      4.75631608	      2.16351776	      0.03776051	      6.44032839	    -10.22568562	     -7.35183714	    -11.22343884	     -0.26579339	     -0.57848616	      7.83116269	     -7.61126659	     21.47623027	     24.61432276	     78.82827014	      5.03371073	     -7.83662750	     18.36508800	     26.62582448	     72.85234669
      0.15000000	      3.63326185	     -0.51795949	     -2.19989781	      0.38532062	      0.90620949	     -0.10133256	     -4.54958177	     -1.79504321	      1.21017426	      2.67624912	      0.04670936	      7.63253227	    -13.89597707	     -7.42540843	     -4.00467059	     -2.33656970	      4.93204889	      2.26403289	      0.03951483	      6.26136849	    -10.60847224	     -7.42540843	    -11.41570128	     -0.24845716	     -0.69008835	      8.15297896	     -7.86532805	     23.46874509	     24.59923895	     78.91378968	      5.18252533	     -7.96506294	     19.42920651	     26.61506165	     73.38786109
      0.16666670	      3.91525977	     -0.48699809	     -2.27311707	      0.38463169	      0.90908129	     -0.10064548	     -4.85672263	     -1.84413402	      1.25973746	      2.57105870	      0.04487344	      7.33614089	    -14.08239639	     -7.44314298	     -4.27694901	     -2.28477079	      4.91372358	      2.28466401	      0.03987491	      5.96302575	    -10.77979900	     -7.44314298	    -11.83243561	     -0.29065160	     -0.68206603	      8.29441719	     -7.88011294	     23.93829324	     24.79968015	     76.83730549	      5.29733498	     -7.95363154	     19.65679404	     26.76086101	     71.96340702
      0.18333330	      4.05188143	     -0.49204123	     -2.29238479	      0.38473202	      0.90764805	     -0.10068521	     -4.98754544	     -1.85163512	      1.27322423	      2.53410085	      0.04422840	      7.04748058	    -14.34486299	     -7.45978565	     -4.41116129	     -2.26293908	      5.15619136	      2.31323759	      0.04037361	      5.76432812	    -11.17948645	     -7.45978565	    -12.02638203	     -0.26512361	     -0.73766278	      8.55496458	     -8.02257599	     25.22862281	     24.72912366	     76.17820593	      5.48663207	     -8.03871467	     20.66880311	     26.64081997	     71.49460233
      0.20000000	      4.28765325	     -0.48160121	     -2.35785865	      0.38548436	      0.90992976	     -0.09915867	     -5.28266666	     -1.85290006	      1.32642801	      2.45488032	      0.04284574	      6.88198786	    -14.33771088	     -7.46866809	     -4.70443388	     -2.26230447	      5.05406969	      2.25662738	      0.03938558	      5.64071614	    -11.07242592	     -7.46866809	    -12.33380387	     -0.31878875	     -0.65577791	      8.70034475	     -8.10579150	     26.10390466	     24.76680139	     76.25786055	      5.64258539	     -8.13781297	     21.44446598	     26.67198470	     71.51991333
      0.21666670	      4.51473361	     -0.49638305	     -2.40478270	      0.38498696	      0.90812404	     -0.10036910	     -5.52036848	     -1.84963760	      1.00978369	      2.45258741	      0.04280573	      7.07699177	    -13.79425245	     -7.47656150	     -4.97884571	     -2.25008932	      5.04871592	      2.20612231	      0.03850410	      5.56451108	    -11.20000288	     -7.47656150	    -12.67002828	     -0.29450930	     -0.68395816	      8.82131605	     -8.10042128	     26.22753125	     24.86021352	     74.75002001	      5.69395023	     -8.09321821	     21.48272153	     26.64599245	     70.37739429
      0.23333330	      4.63216420	     -0.49548249	     -2.40099088	      0.38474050	      0.90619665	     -0.09849724	     -5.65801312	     -1.80769925	      1.25888258	      2.36340581	      0.04124921	      6.72752821	    -14.57117259	     -7.48514880	     -5.13324482	     -2.26616673	      5.39081521	      2.15867434	      0.03767597	      5.28519083	    -11.81547122	     -7.48514880	    -12.84782925	     -0.36221856	     -0.68270618	      8.97582002	     -8.26512684	     27.52204007	     25.03521335	     74.40929928	      5.79877758	     -8.37008558	     22.74160448	     26.93570395	     70.02305533
      0.25000000	      4.82133056	     -0.52296014	     -2.45479524	      0.38444828	      0.90752848	     -0.09923271	     -5.84827872	     -1.77192118	      1.19080469	      2.33799744	      0.04080575	      6.67690083	    -14.57591467	     -7.48892231	     -5.37250539	     -2.30112055	      5.33964791	      2.09660096	      0.03659259	      5.28405231	    -11.75709766	     -7.48892231	    -13.13111937	     -0.38478849	     -0.56375790	      9.06443655	     -8.35312548	     27.92025732	     25.23113637	     74.05495541	      5.92623050	     -8.44373834	     23.14608142	     27.04898400	     69.66763630
      0.26666670	      4.88573974	     -0.51411588	     -2.46970848	      0.38438141	      0.90872815	     -0.09896490	     -5.90558611	     -1.77213438	      1.22380980	      2.33201386	      0.04070132	      6.46380102	    -14.83717620	     -7.49001203	     -5.44983807	     -2.29861761	      5.50392821	      2.02879888	      0.03540922	      4.99456298	    -12.14871403	     -7.49001203	    -13.24017189	     -0.45900281	     -0.57621728	      9.22971289	     -8.37322726	     28.44810354	     25.13865105	     74.87092122	      6.05689223	     -8.55019467	     23.72309126	     26.96819462	     70.17796281
